<svg width="1200" height="675" viewBox="0 0 1200 675" fill="none" xmlns="http://www.w3.org/2000/svg" role="img" aria-labelledby="title desc">
  <title id="title">Brevard County Florida</title>
  <desc id="desc">Stylized skyline graphic for Brevard County, Florida.</desc>
  <defs>
    <linearGradient id="bg" x1="0" y1="0" x2="0" y2="675" gradientUnits="userSpaceOnUse">
      <stop stop-color="#0B3C8A" />
      <stop offset="1" stop-color="#1B74E4" />
    </linearGradient>
    <linearGradient id="sun" x1="0" y1="0" x2="1" y2="1">
      <stop stop-color="#FFD66B" />
      <stop offset="1" stop-color="#FFB347" />
    </linearGradient>
  </defs>

  <rect width="1200" height="675" fill="url(#bg)" />
  <circle cx="980" cy="130" r="78" fill="url(#sun)" opacity="0.95" />

  <path d="M0 480C130 445 225 505 332 486C429 469 518 408 632 421C754 435 832 503 952 497C1037 492 1127 448 1200 456V675H0V480Z" fill="#0F5CC5" opacity="0.6" />

  <g fill="#0A2A5E">
    <rect x="120" y="292" width="74" height="228" rx="4" />
    <rect x="212" y="252" width="66" height="268" rx="4" />
    <rect x="298" y="315" width="58" height="205" rx="4" />
    <rect x="372" y="226" width="86" height="294" rx="4" />
    <rect x="474" y="274" width="80" height="246" rx="4" />
    <rect x="568" y="198" width="96" height="322" rx="4" />
    <rect x="682" y="246" width="66" height="274" rx="4" />
    <rect x="764" y="304" width="62" height="216" rx="4" />
    <rect x="842" y="260" width="92" height="260" rx="4" />
    <rect x="952" y="326" width="56" height="194" rx="4" />
  </g>

  <g fill="#75A8F6" opacity="0.85">
    <rect x="140" y="322" width="12" height="12" rx="1" />
    <rect x="140" y="346" width="12" height="12" rx="1" />
    <rect x="232" y="282" width="12" height="12" rx="1" />
    <rect x="232" y="306" width="12" height="12" rx="1" />
    <rect x="392" y="256" width="12" height="12" rx="1" />
    <rect x="392" y="280" width="12" height="12" rx="1" />
    <rect x="586" y="226" width="12" height="12" rx="1" />
    <rect x="586" y="250" width="12" height="12" rx="1" />
    <rect x="860" y="290" width="12" height="12" rx="1" />
    <rect x="860" y="314" width="12" height="12" rx="1" />
  </g>

  <text x="70" y="604" fill="#FFFFFF" font-size="54" font-family="Arial, Helvetica, sans-serif" font-weight="700" letter-spacing="0.5">Brevard County, FL</text>
  <text x="72" y="638" fill="#D2E4FF" font-size="24" font-family="Arial, Helvetica, sans-serif">Palm Bay • Melbourne • Space Coast</text>
</svg>
